<?xml version="1.0" encoding="UTF-8"?>
<svg width="180px" height="180px" viewBox="0 0 180 180" version="1.1" xmlns="http://www.w3.org/2000/svg" xmlns:xlink="http://www.w3.org/1999/xlink">
    <g id="Page-1" stroke="none" stroke-width="1" fill="none" fill-rule="evenodd">
        <g id="logo-black" fill-rule="nonzero" fill="#E2CAB7">
            <path d="M90,180 C40.2943725,180 0,139.705628 0,90 C0,40.2943725 40.2943725,0 90,0 C139.705628,0 180,40.2943725 180,90 C180,139.705628 139.705628,180 90,180 Z M131.0243,65.8653564 C127.315759,65.8653564 124.309392,62.8591368 124.309392,59.1507774 L103.36381,59.1507774 C99.6540535,59.1507774 96.6467022,56.143573 96.6467022,52.4339982 C96.6467022,48.7244234 99.6540535,45.7172191 103.36381,45.7172191 L154.068841,45.7172191 C136.577953,20.4099772 105.831661,7.76499152 75.595946,13.4437783 C45.3602301,19.1225651 21.297874,42.0615563 14.1822715,71.9903197 L79.1487801,71.9903197 C82.8585363,71.9903197 85.8658876,74.9975241 85.8658876,78.7070989 C85.8658876,82.4166737 82.8585363,85.423878 79.1487801,85.423878 L58.2031976,85.423878 C58.2031976,87.2046952 57.4957363,88.9125744 56.2364465,90.1718021 C54.9771572,91.4310304 53.2691945,92.138457 51.4882902,92.138457 L12.1185156,92.138457 C12.2023304,95.4509072 12.4962766,98.7547009 12.9985821,102.029921 L13.0953894,102.029921 C36.8219821,106.355236 63.7960201,108.801701 92.4069819,108.801701 C119.059796,108.801701 144.291302,106.676445 166.799003,102.887944 C168.865846,90.5037056 167.922565,77.8039941 164.048795,65.8609563 L131.0243,65.8609563 L131.0243,65.8653564 Z M41.3895272,143.580229 L41.3895272,150.880023 C69.8124548,173.571436 110.156743,173.571436 138.57967,150.880023 L138.57967,143.580229 L41.3895272,143.580229 Z M25.6847406,133.979173 L81.9561922,133.979173 L81.9561922,124.738926 C62.0050848,124.87093 42.9384442,125.500147 25.332714,126.547375 L25.332714,133.464359 L25.6847406,133.979173 Z M154.284457,133.979173 L154.636484,133.468759 L154.636484,126.551775 C137.035154,125.508947 117.964113,124.87973 98.0130054,124.743326 L98.0130054,133.983573 L154.284457,133.979173 Z" id="Combined-Shape"></path>
        </g>
    </g>
</svg>